<svg xmlns="http://www.w3.org/2000/svg" x="0" y="0" viewBox="0 0 1200 1200">
<g fill="#ffffff">
	<path class="st0" d="M129.6,606L594,1070.4c-118.6-1.4-236.8-46.5-327.4-137.1C176.1,842.8,131,724.6,129.6,606z"/>
	<path class="st0" d="M771.4,600h300c0,224.5-157,411.9-367.1,459.4L140.6,495.7c47.5-210.1,235-367.1,459.4-367.1
		c156.9,0,295.5,77,381.2,194.9L915.6,379C845.8,279.5,730.5,214.3,600,214.3c-167.7,0-310.3,107.7-363.3,257.5l491.6,491.6
		c123.4-43.7,218-148.2,247.6-277.6H771.4V600z"/>
</g>
<path fill="#663399" class="st1" d="M600,0c331.4,0,600,268.6,600,600s-268.6,600-600,600S0,931.4,0,600S268.6,0,600,0z M1071.4,600h-300v85.8
	h204.5c-29.6,129.4-124.2,233.9-247.6,277.6L236.7,471.8C289.7,322,432.3,214.3,600,214.3c130.5,0,245.8,65.2,315.6,164.7l65.6-55.5
	C895.5,205.6,756.9,128.6,600,128.6c-224.4,0-411.9,157-459.4,367.1l563.7,563.7C914.4,1011.9,1071.4,824.5,1071.4,600z M594,1070.4
	L129.6,606c1.4,118.6,46.5,236.8,137,327.3C357.2,1023.9,475.4,1069,594,1070.4z"/>
</svg>